<svg xmlns="http://www.w3.org/2000/svg" viewBox="0 0 1280 640">
  <defs>
    <linearGradient id="bg" x1="0" y1="0" x2="1" y2="1">
      <stop offset="0%" stop-color="#1a1a2e"/>
      <stop offset="100%" stop-color="#16213e"/>
    </linearGradient>
    <linearGradient id="card-header" x1="0" y1="0" x2="1" y2="0">
      <stop offset="0%" stop-color="#e74c3c"/>
      <stop offset="100%" stop-color="#c0392b"/>
    </linearGradient>
    <linearGradient id="tg-grad" x1="0" y1="0" x2="1" y2="1">
      <stop offset="0%" stop-color="#2AABEE"/>
      <stop offset="100%" stop-color="#229ED9"/>
    </linearGradient>
  </defs>

  <!-- Background -->
  <rect width="1280" height="640" fill="url(#bg)"/>

  <!-- K-line candlestick chart (background decoration) -->
  <g opacity="0.12" transform="translate(0, 350)">
    <!-- Downtrend candles (red/bearish - she bought, so it drops) -->
    <g fill="#EF4444" stroke="#EF4444" stroke-width="1.5">
      <line x1="60" y1="-30" x2="60" y2="50"/><rect x="52" y="-10" width="16" height="40" rx="2"/>
      <line x1="120" y1="-50" x2="120" y2="30"/><rect x="112" y="-30" width="16" height="35" rx="2"/>
      <line x1="180" y1="-20" x2="180" y2="60"/><rect x="172" y="0" width="16" height="35" rx="2"/>
      <line x1="240" y1="10" x2="240" y2="80"/><rect x="232" y="20" width="16" height="40" rx="2"/>
      <line x1="300" y1="30" x2="300" y2="100"/><rect x="292" y="40" width="16" height="35" rx="2"/>
    </g>
    <!-- Pivot point (she stops loss here!) -->
    <g fill="#f59e0b" stroke="#f59e0b" stroke-width="1.5">
      <line x1="360" y1="50" x2="360" y2="120"/><rect x="352" y="60" width="16" height="40" rx="2"/>
    </g>
    <!-- Uptrend candles (green/bullish - she sold, so it bounces) -->
    <g fill="#10B981" stroke="#10B981" stroke-width="1.5">
      <line x1="420" y1="20" x2="420" y2="110"/><rect x="412" y="40" width="16" height="40" rx="2"/>
      <line x1="480" y1="-10" x2="480" y2="80"/><rect x="472" y="10" width="16" height="40" rx="2"/>
      <line x1="540" y1="-40" x2="540" y2="50"/><rect x="532" y="-20" width="16" height="40" rx="2"/>
      <line x1="600" y1="-70" x2="600" y2="20"/><rect x="592" y="-50" width="16" height="40" rx="2"/>
      <line x1="660" y1="-90" x2="660" y2="-10"/><rect x="652" y="-70" width="16" height="30" rx="2"/>
    </g>
    <!-- Second wave on right side -->
    <g fill="#EF4444" stroke="#EF4444" stroke-width="1.5">
      <line x1="740" y1="-60" x2="740" y2="10"/><rect x="732" y="-40" width="16" height="30" rx="2"/>
      <line x1="800" y1="-40" x2="800" y2="30"/><rect x="792" y="-20" width="16" height="30" rx="2"/>
      <line x1="860" y1="-10" x2="860" y2="50"/><rect x="852" y="0" width="16" height="30" rx="2"/>
    </g>
    <g fill="#10B981" stroke="#10B981" stroke-width="1.5">
      <line x1="920" y1="-30" x2="920" y2="40"/><rect x="912" y="-10" width="16" height="30" rx="2"/>
      <line x1="980" y1="-60" x2="980" y2="10"/><rect x="972" y="-40" width="16" height="30" rx="2"/>
      <line x1="1040" y1="-80" x2="1040" y2="-10"/><rect x="1032" y="-60" width="16" height="30" rx="2"/>
      <line x1="1100" y1="-50" x2="1100" y2="20"/><rect x="1092" y="-30" width="16" height="25" rx="2"/>
      <line x1="1160" y1="-30" x2="1160" y2="30"/><rect x="1152" y="-10" width="16" height="25" rx="2"/>
      <line x1="1220" y1="-60" x2="1220" y2="0"/><rect x="1212" y="-40" width="16" height="25" rx="2"/>
    </g>
    <!-- "她停損" annotation arrow -->
    <g opacity="0.8">
      <text x="360" y="150" text-anchor="middle" font-family="-apple-system, sans-serif" font-size="11" fill="#f59e0b" font-weight="600">她停損</text>
      <line x1="360" y1="138" x2="360" y2="125" stroke="#f59e0b" stroke-width="1.5" marker-end="none"/>
      <polygon points="354,128 360,120 366,128" fill="#f59e0b"/>
    </g>
  </g>

  <!-- ==================== LEFT: Social Posts ==================== -->
  <!-- Threads post bubble -->
  <g transform="translate(60, 120)">
    <rect width="300" height="90" rx="16" fill="#fff" opacity="0.95"/>
    <!-- Threads icon -->
    <circle cx="30" cy="28" r="14" fill="#000"/>
    <text x="30" y="33" text-anchor="middle" font-family="-apple-system, sans-serif" font-size="14" font-weight="700" fill="#fff">@</text>
    <text x="52" y="33" font-family="-apple-system, sans-serif" font-size="13" font-weight="600" fill="#1d1d1f">banini31</text>
    <text x="220" y="33" font-family="-apple-system, sans-serif" font-size="11" fill="#86868b">Threads</text>
    <rect x="16" y="48" width="200" height="7" rx="3.5" fill="#e5e5e5"/>
    <rect x="16" y="62" width="260" height="7" rx="3.5" fill="#e5e5e5"/>
  </g>

  <!-- Facebook post bubble -->
  <g transform="translate(100, 230)">
    <rect width="300" height="110" rx="16" fill="#fff" opacity="0.95"/>
    <!-- FB icon -->
    <circle cx="30" cy="28" r="14" fill="#1877F2"/>
    <text x="30" y="34" text-anchor="middle" font-family="-apple-system, sans-serif" font-size="16" font-weight="700" fill="#fff">f</text>
    <text x="52" y="33" font-family="-apple-system, sans-serif" font-size="13" font-weight="600" fill="#1d1d1f">DieWithoutBang</text>
    <text x="240" y="33" font-family="-apple-system, sans-serif" font-size="11" fill="#86868b">Facebook</text>
    <!-- Post content skeleton -->
    <rect x="16" y="48" width="240" height="7" rx="3.5" fill="#e5e5e5"/>
    <rect x="16" y="62" width="180" height="7" rx="3.5" fill="#e5e5e5"/>
    <!-- Image placeholder -->
    <rect x="16" y="78" width="80" height="20" rx="4" fill="#f0f0f0"/>
    <text x="56" y="92" text-anchor="middle" font-family="-apple-system, sans-serif" font-size="9" fill="#aaa">OCR</text>
  </g>

  <!-- ==================== MIDDLE: Arrow + AI ==================== -->
  <g transform="translate(420, 240)">
    <!-- Arrow line -->
    <line x1="0" y1="0" x2="80" y2="0" stroke="#f59e0b" stroke-width="3" stroke-linecap="round" opacity="0.6"/>
    <polygon points="80,-8 96,0 80,8" fill="#f59e0b" opacity="0.6"/>
  </g>

  <!-- AI Analysis card -->
  <g transform="translate(530, 100)">
    <rect width="300" height="280" rx="16" fill="#fff" opacity="0.95"/>
    <!-- Header -->
    <rect width="300" height="48" rx="16" fill="url(#card-header)"/>
    <rect x="0" y="32" width="300" height="16" fill="url(#card-header)"/>
    <text x="150" y="32" text-anchor="middle" font-family="-apple-system, sans-serif" font-size="15" font-weight="700" fill="#fff">AI 反指標分析</text>

    <!-- Target list -->
    <g transform="translate(20, 64)">
      <text font-family="-apple-system, sans-serif" font-size="12" fill="#86868b">提及標的</text>
      <!-- Target 1 -->
      <g transform="translate(0, 18)">
        <text font-family="-apple-system, sans-serif" font-size="13" fill="#10B981" font-weight="700">↑</text>
        <text x="16" font-family="-apple-system, sans-serif" font-size="13" fill="#1d1d1f" font-weight="600">鈦昇</text>
        <rect x="50" width="60" height="18" rx="9" fill="#ecfdf5"/>
        <text x="80" y="13" text-anchor="middle" font-family="-apple-system, sans-serif" font-size="10" fill="#10B981">可能反彈</text>
      </g>
      <!-- Target 2 -->
      <g transform="translate(0, 42)">
        <text font-family="-apple-system, sans-serif" font-size="13" fill="#EF4444" font-weight="700">↓</text>
        <text x="16" font-family="-apple-system, sans-serif" font-size="13" fill="#1d1d1f" font-weight="600">原油正二</text>
        <rect x="76" width="60" height="18" rx="9" fill="#fef2f2"/>
        <text x="106" y="13" text-anchor="middle" font-family="-apple-system, sans-serif" font-size="10" fill="#EF4444">可能續跌</text>
      </g>
    </g>

    <!-- Chain analysis -->
    <g transform="translate(20, 150)">
      <text font-family="-apple-system, sans-serif" font-size="12" fill="#86868b">連鎖推導</text>
      <rect y="16" width="260" height="6" rx="3" fill="#f0f0f0"/>
      <rect y="28" width="200" height="6" rx="3" fill="#f0f0f0"/>
    </g>

    <!-- Mood score -->
    <g transform="translate(20, 200)">
      <text font-family="-apple-system, sans-serif" font-size="12" fill="#86868b">冥燈指數</text>
      <g transform="translate(0, 16)">
        <rect width="200" height="8" rx="4" fill="#f0f0f0"/>
        <rect width="160" height="8" rx="4" fill="#f59e0b"/>
      </g>
      <text x="210" y="24" font-family="-apple-system, sans-serif" font-size="14" font-weight="700" fill="#f59e0b">8/10</text>
    </g>

    <!-- Disclaimer -->
    <text x="150" y="262" text-anchor="middle" font-family="-apple-system, sans-serif" font-size="9" fill="#c0c0c0">僅供娛樂參考，不構成投資建議</text>
  </g>

  <!-- ==================== RIGHT: Arrow + Telegram ==================== -->
  <g transform="translate(845, 240)">
    <line x1="0" y1="0" x2="80" y2="0" stroke="#2AABEE" stroke-width="3" stroke-linecap="round" opacity="0.6"/>
    <polygon points="80,-8 96,0 80,8" fill="#2AABEE" opacity="0.6"/>
  </g>

  <!-- Telegram notification -->
  <g transform="translate(950, 160)">
    <rect width="270" height="160" rx="16" fill="url(#tg-grad)"/>
    <!-- Telegram plane icon -->
    <g transform="translate(20, 20)">
      <polygon points="0,10 24,0 24,20" fill="#fff" opacity="0.9"/>
      <polygon points="10,10 24,4 24,16" fill="#fff" opacity="0.7"/>
    </g>
    <text x="52" y="34" font-family="-apple-system, sans-serif" font-size="14" font-weight="700" fill="#fff">巴逆逆反指標速報</text>
    <!-- Message preview -->
    <rect x="16" y="50" width="238" height="94" rx="10" fill="#fff" opacity="0.2"/>
    <rect x="26" y="62" width="160" height="6" rx="3" fill="#fff" opacity="0.5"/>
    <rect x="26" y="76" width="200" height="6" rx="3" fill="#fff" opacity="0.4"/>
    <rect x="26" y="90" width="140" height="6" rx="3" fill="#fff" opacity="0.4"/>
    <!-- Arrow indicators -->
    <text x="26" y="120" font-family="-apple-system, sans-serif" font-size="12" fill="#fff" opacity="0.8">↑ 鈦昇  ↓ 原油正二</text>
  </g>

  <!-- ==================== BOTTOM: Title ==================== -->
  <text x="640" y="500" text-anchor="middle" font-family="-apple-system, 'Helvetica Neue', sans-serif" font-weight="800" font-size="64" fill="#fff" letter-spacing="-1">
    banini-tracker
  </text>
  <text x="640" y="545" text-anchor="middle" font-family="-apple-system, sans-serif" font-size="22" fill="#fff" opacity="0.7">
    Social posts → AI reverse-indicator analysis → Telegram alerts
  </text>
  <text x="640" y="590" text-anchor="middle" font-family="ui-monospace, monospace" font-size="16" fill="#fff" opacity="0.35">
    by @cablate
  </text>
</svg>
